<svg width="28" height="28" viewBox="0 0 28 28" fill="none" xmlns="http://www.w3.org/2000/svg">
    <g clip-path="url(#clip0)">
        <path d="M4.5136 13.8954C4.37983 13.6862 4.29957 13.4246 4.29957 13.1631C4.29957 12.9016 4.37983 12.5615 4.5136 12.3523C5.2627 11.1492 6.49337 9.31842 7.64378 7.74916C8.71393 6.25837 8.17885 5.81374 7.77755 5.36912C7.37624 4.95065 7.02844 4.66295 6.65389 4.40141C5.664 3.74756 5.12894 4.76757 5.12894 4.76757C5.12894 4.76757 1.00886 11.2538 0.366776 12.1692C0.125993 12.5092 0.0457356 12.8231 0.0189819 13.1369C0.0457356 13.4246 0.125993 13.7646 0.366776 14.1046C1.00886 15.02 5.2627 21.7417 5.2627 21.7417C5.2627 21.7417 5.74427 22.6309 6.65389 21.8725C7.0552 21.5325 7.34949 21.2971 7.77755 20.9048C8.23236 20.5124 8.74068 19.9894 7.64378 18.5247C6.49337 16.9293 5.2627 15.0985 4.5136 13.8954Z" fill="white"/>
        <path d="M27.8399 13.8956C27.8399 13.8694 27.8399 13.8694 27.8399 13.8956C27.8132 13.4771 27.6794 13.0063 27.3316 12.5355C26.422 11.254 20.1616 1.36766 20.1616 1.36766C20.1616 1.36766 19.6266 0.373795 18.3959 1.49843C17.8876 1.96921 18.2086 1.65536 17.6468 2.2569C17.0582 2.88461 16.5766 4.16617 18.1284 6.25851C19.7871 8.50778 21.4993 11.097 22.5695 12.7971C22.7567 13.0848 22.837 13.4771 22.837 13.8432C22.837 13.8432 22.837 13.8956 22.837 13.9217C22.837 13.9479 22.837 13.974 22.837 14.0002C22.837 14.3663 22.7567 14.7586 22.5695 15.0463C21.4993 16.7725 19.7871 19.3356 18.1284 21.5849C16.6034 23.6773 17.0582 24.9588 17.6468 25.5865C18.2086 26.1881 17.8876 25.8742 18.3959 26.345C19.6266 27.4696 20.1616 26.4758 20.1616 26.4758C20.1616 26.4758 26.422 16.5894 27.3316 15.3079C27.6527 14.8371 27.8132 14.3663 27.8399 13.9479C27.8399 13.9217 27.8399 13.9217 27.8399 13.8956Z" fill="white"/>
    </g>
    <defs>
        <clipPath id="clip0">
            <rect width="28" height="26.0784" fill="white" transform="translate(-6.10352e-05 0.960754)"/>
        </clipPath>
    </defs>
</svg>
