<svg width="60" height="66" viewBox="0 0 60 66" fill="none" xmlns="http://www.w3.org/2000/svg">
    <rect x="2" width="56" height="56" fill="#428DEB"/>
    <g filter="url(#filter0_dd)">
        <g clip-path="url(#clip0)">
            <path d="M20.5137 27.8954C20.3799 27.6862 20.2996 27.4246 20.2996 27.1631C20.2996 26.9016 20.3799 26.5615 20.5137 26.3523C21.2628 25.1492 22.4934 23.3184 23.6438 21.7492C24.714 20.2584 24.1789 19.8137 23.7776 19.3691C23.3763 18.9507 23.0285 18.663 22.654 18.4014C21.6641 17.7476 21.129 18.7676 21.129 18.7676C21.129 18.7676 17.0089 25.2538 16.3668 26.1692C16.1261 26.5092 16.0458 26.8231 16.019 27.1369C16.0458 27.4246 16.1261 27.7646 16.3668 28.1046C17.0089 29.02 21.2628 35.7417 21.2628 35.7417C21.2628 35.7417 21.7443 36.6309 22.654 35.8725C23.0553 35.5325 23.3496 35.2971 23.7776 34.9048C24.2324 34.5124 24.7407 33.9894 23.6438 32.5247C22.4934 30.9293 21.2628 29.0985 20.5137 27.8954Z" fill="white"/>
            <path d="M43.8399 27.8962C43.8399 27.87 43.8399 27.87 43.8399 27.8962C43.8132 27.4777 43.6794 27.0069 43.3316 26.5361C42.422 25.2546 36.1616 15.3683 36.1616 15.3683C36.1616 15.3683 35.6266 14.3744 34.3959 15.499C33.8876 15.9698 34.2086 15.656 33.6468 16.2575C33.0582 16.8852 32.5766 18.1668 34.1284 20.2591C35.7871 22.5084 37.4993 25.0977 38.5695 26.7977C38.7567 27.0854 38.837 27.4777 38.837 27.8439C38.837 27.8439 38.837 27.8962 38.837 27.9223C38.837 27.9485 38.837 27.9746 38.837 28.0008C38.837 28.3669 38.7567 28.7593 38.5695 29.047C37.4993 30.7731 35.7871 33.3363 34.1284 35.5855C32.6034 37.6779 33.0582 38.9594 33.6468 39.5871C34.2086 40.1887 33.8876 39.8748 34.3959 40.3456C35.6266 41.4702 36.1616 40.4764 36.1616 40.4764C36.1616 40.4764 42.422 30.5901 43.3316 29.3085C43.6527 28.8377 43.8132 28.3669 43.8399 27.9485C43.8399 27.9223 43.8399 27.9223 43.8399 27.8962Z" fill="white"/>
        </g>
    </g>
    <defs>
        <filter id="filter0_dd" x="-2" y="4" width="64" height="64" filterUnits="userSpaceOnUse" color-interpolation-filters="sRGB">
            <feFlood flood-opacity="0" result="BackgroundImageFix"/>
            <feColorMatrix in="SourceAlpha" type="matrix" values="0 0 0 0 0 0 0 0 0 0 0 0 0 0 0 0 0 0 127 0"/>
            <feOffset dy="2"/>
            <feGaussianBlur stdDeviation="3"/>
            <feColorMatrix type="matrix" values="0 0 0 0 0 0 0 0 0 0 0 0 0 0 0 0 0 0 0.04 0"/>
            <feBlend mode="normal" in2="BackgroundImageFix" result="effect1_dropShadow"/>
            <feColorMatrix in="SourceAlpha" type="matrix" values="0 0 0 0 0 0 0 0 0 0 0 0 0 0 0 0 0 0 127 0"/>
            <feOffset dy="8"/>
            <feGaussianBlur stdDeviation="8"/>
            <feColorMatrix type="matrix" values="0 0 0 0 0 0 0 0 0 0 0 0 0 0 0 0 0 0 0.08 0"/>
            <feBlend mode="normal" in2="effect1_dropShadow" result="effect2_dropShadow"/>
            <feBlend mode="normal" in="SourceGraphic" in2="effect2_dropShadow" result="shape"/>
        </filter>
        <clipPath id="clip0">
            <rect width="28" height="26.0784" fill="white" transform="translate(16 14.9609)"/>
        </clipPath>
    </defs>
</svg>
