<svg width="56" height="56" viewBox="0 0 56 56" fill="none" xmlns="http://www.w3.org/2000/svg">
    <rect width="56" height="56" fill="black" fill-opacity="0.4"/>
    <g clip-path="url(#clip0)">
        <path d="M18.5136 27.8954C18.3798 27.6862 18.2996 27.4246 18.2996 27.1631C18.2996 26.9016 18.3798 26.5615 18.5136 26.3523C19.2627 25.1492 20.4934 23.3184 21.6438 21.7492C22.7139 20.2584 22.1789 19.8137 21.7775 19.3691C21.3762 18.9507 21.0284 18.663 20.6539 18.4014C19.664 17.7476 19.1289 18.7676 19.1289 18.7676C19.1289 18.7676 15.0089 25.2538 14.3668 26.1692C14.126 26.5092 14.0457 26.8231 14.019 27.1369C14.0457 27.4246 14.126 27.7646 14.3668 28.1046C15.0089 29.02 19.2627 35.7417 19.2627 35.7417C19.2627 35.7417 19.7443 36.6309 20.6539 35.8725C21.0552 35.5325 21.3495 35.2971 21.7775 34.9048C22.2324 34.5124 22.7407 33.9894 21.6438 32.5247C20.4934 30.9293 19.2627 29.0985 18.5136 27.8954Z" fill="#56B8FF"/>
        <path d="M41.8399 27.8956C41.8399 27.8694 41.8399 27.8694 41.8399 27.8956C41.8132 27.4771 41.6794 27.0063 41.3316 26.5355C40.422 25.254 34.1616 15.3677 34.1616 15.3677C34.1616 15.3677 33.6266 14.3738 32.3959 15.4984C31.8876 15.9692 32.2086 15.6554 31.6468 16.2569C31.0582 16.8846 30.5766 18.1662 32.1284 20.2585C33.7871 22.5078 35.4993 25.097 36.5695 26.7971C36.7567 27.0848 36.837 27.4771 36.837 27.8432C36.837 27.8432 36.837 27.8956 36.837 27.9217C36.837 27.9479 36.837 27.974 36.837 28.0002C36.837 28.3663 36.7567 28.7586 36.5695 29.0463C35.4993 30.7725 33.7871 33.3356 32.1284 35.5849C30.6034 37.6773 31.0582 38.9588 31.6468 39.5865C32.2086 40.1881 31.8876 39.8742 32.3959 40.345C33.6266 41.4696 34.1616 40.4758 34.1616 40.4758C34.1616 40.4758 40.422 30.5894 41.3316 29.3079C41.6527 28.8371 41.8132 28.3663 41.8399 27.9479C41.8399 27.9217 41.8399 27.9217 41.8399 27.8956Z" fill="#56B8FF"/>
    </g>
    <defs>
        <clipPath id="clip0">
            <rect x="13.9999" y="14.9608" width="28" height="26.0784" fill="white"/>
        </clipPath>
    </defs>
</svg>
