<svg width="56" height="56" viewBox="0 0 56 56" fill="none" xmlns="http://www.w3.org/2000/svg">
    <path d="M18.5137 27.8957C18.3799 27.6864 18.2996 27.4249 18.2996 27.1633C18.2996 26.9018 18.3799 26.5618 18.5137 26.3526C19.2628 25.1495 20.4934 23.3187 21.6438 21.7494C22.714 20.2586 22.1789 19.814 21.7776 19.3694C21.3763 18.9509 21.0285 18.6632 20.654 18.4017C19.6641 17.7478 19.129 18.7678 19.129 18.7678C19.129 18.7678 15.0089 25.2541 14.3668 26.1695C14.1261 26.5095 14.0458 26.8233 14.019 27.1372C14.0458 27.4249 14.1261 27.7649 14.3668 28.1049C15.0089 29.0203 19.2628 35.7419 19.2628 35.7419C19.2628 35.7419 19.7443 36.6312 20.654 35.8727C21.0553 35.5327 21.3496 35.2973 21.7776 34.905C22.2324 34.5127 22.7407 33.9896 21.6438 32.525C20.4934 30.9296 19.2628 29.0988 18.5137 27.8957Z" fill="#428DEB"/>
    <path d="M41.8399 27.8958C41.8399 27.8696 41.8399 27.8696 41.8399 27.8958C41.8132 27.4773 41.6794 27.0066 41.3316 26.5358C40.422 25.2542 34.1616 15.3679 34.1616 15.3679C34.1616 15.3679 33.6266 14.374 32.3959 15.4987C31.8876 15.9695 32.2086 15.6556 31.6468 16.2571C31.0582 16.8849 30.5766 18.1664 32.1284 20.2588C33.7871 22.508 35.4993 25.0973 36.5695 26.7973C36.7567 27.085 36.837 27.4773 36.837 27.8435C36.837 27.8435 36.837 27.8958 36.837 27.922C36.837 27.9481 36.837 27.9743 36.837 28.0004C36.837 28.3666 36.7567 28.7589 36.5695 29.0466C35.4993 30.7728 33.7871 33.3359 32.1284 35.5852C30.6034 37.6775 31.0582 38.9591 31.6468 39.5868C32.2086 40.1883 31.8876 39.8745 32.3959 40.3452C33.6266 41.4699 34.1616 40.476 34.1616 40.476C34.1616 40.476 40.422 30.5897 41.3316 29.3081C41.6527 28.8374 41.8132 28.3666 41.8399 27.9481C41.8399 27.922 41.8399 27.922 41.8399 27.8958Z" fill="#428DEB"/>
</svg>
