<svg width="88" height="64" viewBox="0 0 88 64" fill="none" xmlns="http://www.w3.org/2000/svg">
    <path d="M49.3149 19.0485C49.1236 18.7456 49.0088 18.3669 49.0088 17.9882C49.0088 17.6095 49.1236 17.1172 49.3149 16.8142C50.3861 15.0722 52.146 12.4213 53.7911 10.1491C55.3215 7.99055 54.5563 7.34676 53.9824 6.70297C53.4086 6.09705 52.9112 5.68049 52.3756 5.30179C50.96 4.35504 50.1949 5.83196 50.1949 5.83196C50.1949 5.83196 44.3031 15.2237 43.3849 16.5491C43.0405 17.0414 42.9258 17.4959 42.8875 17.9503C42.9258 18.3669 43.0405 18.8592 43.3849 19.3515C44.3031 20.6769 50.3861 30.4095 50.3861 30.4095C50.3861 30.4095 51.0748 31.6971 52.3756 30.5988C52.9495 30.1065 53.3703 29.7657 53.9824 29.1976C54.6328 28.6296 55.3597 27.8722 53.7911 25.7515C52.146 23.4414 50.3861 20.7905 49.3149 19.0485Z" fill="#56B8FF"/>
    <path d="M87.5351 19.0485C87.5351 19.0106 87.5351 19.0106 87.5351 19.0485C87.4969 18.4426 87.3056 17.7609 86.8082 17.0793C85.5074 15.2237 76.555 0.908862 76.555 0.908862C76.555 0.908862 75.7898 -0.530192 74.0299 1.09821C73.303 1.77987 73.7621 1.32543 72.9587 2.19644C72.117 3.10531 71.4284 4.96093 73.6473 7.99052C76.0194 11.2473 78.4679 14.9964 79.9982 17.458C80.2661 17.8745 80.3808 18.4426 80.3808 18.9728C80.3808 18.9728 80.3808 19.0485 80.3808 19.0864C80.3808 19.1242 80.3808 19.1621 80.3808 19.2C80.3808 19.7302 80.2661 20.2982 79.9982 20.7148C78.4679 23.2142 76.0194 26.9254 73.6473 30.1822C71.4666 33.2118 72.117 35.0674 72.9587 35.9763C73.7621 36.8473 73.303 36.3929 74.0299 37.0745C75.7898 38.7029 76.555 37.2639 76.555 37.2639C76.555 37.2639 85.5074 22.9491 86.8082 21.0935C87.2673 20.4118 87.4969 19.7302 87.5351 19.1242C87.5351 19.0864 87.5351 19.0864 87.5351 19.0485Z" fill="#56B8FF"/>
    <path d="M38.2201 32.9089H38.947L41.6251 44.6864H41.6634L42.8876 38.8166L44.418 32.1136H45.4509L42.1225 46.3527H41.0895L39.5974 39.8012L38.6027 34.8403L37.608 39.7255L36.0776 46.3527H35.0447L31.7162 32.1136H32.7492L34.2795 38.8166L35.5038 44.6864H35.542L38.2201 32.9089Z" fill="#252525"/>
    <path d="M46.3692 42.452V39.4982C46.3692 36.4686 47.4787 35.484 49.8125 35.484C52.1462 35.484 53.2557 36.3929 53.2557 39.536V42.4142C53.2557 45.4059 52.1462 46.4662 49.8125 46.4662C47.4787 46.5041 46.3692 45.5952 46.3692 42.452ZM52.3375 42.4142V39.5739C52.3375 37.2639 51.9549 36.355 49.8125 36.355C47.7848 36.355 47.2874 37.2639 47.2874 39.536V42.3763C47.2874 44.6863 47.67 45.6331 49.8125 45.6331C51.8401 45.6331 52.3375 44.6864 52.3375 42.4142Z" fill="#252525"/>
    <path d="M56.6225 35.484L56.6608 36.7716C57.1199 35.9006 58.2294 35.2568 59.5684 35.484V36.355C57.9233 36.0899 56.7373 37.1503 56.7373 38.6651V46.3148H55.8191V35.4462H56.6225V35.484Z" fill="#252525"/>
    <path d="M67.526 46.3526L63.6236 40.9751H62.5907V46.3526H61.6342V32.1514H62.5907V40.0662H63.6236L67.1052 35.4839H68.2147L64.3888 40.5585L68.6738 46.3905H67.526V46.3526Z" fill="#252525"/>
    <path d="M6.73347 52.374C6.73347 50.632 5.58572 49.9882 3.94061 49.9882C1.98944 49.9882 0.918198 50.5941 0.918198 52.9041C0.918198 55.4793 2.44853 55.4414 4.66752 55.7065C6.77173 55.9716 7.996 57.3349 7.996 59.4177C7.996 62.9018 6.31263 63.697 3.82584 63.697C1.30078 63.697 0 62.5988 0 60.3266H0.879943C0.879943 62.0686 1.87466 62.826 3.82584 62.826C6.19785 62.826 7.03954 61.8793 7.03954 59.4177C7.03954 56.8805 5.2414 56.5775 3.09893 56.3882C1.60685 56.2367 0 55.5929 0 52.942C0 50.2533 1.33904 49.1929 3.94061 49.1929C5.96831 49.1929 7.49864 49.8746 7.61341 52.4118H6.73347V52.374Z" fill="#252525"/>
    <path d="M9.98535 59.6449V56.6911C9.98535 53.6615 11.0948 52.6769 13.4286 52.6769C15.7624 52.6769 16.8719 53.5857 16.8719 56.7289V59.6071C16.8719 62.5988 15.7624 63.6591 13.4286 63.6591C11.0948 63.697 9.98535 62.7881 9.98535 59.6449ZM15.9537 59.6071V56.7668C15.9537 54.4568 15.5711 53.5479 13.4286 53.5479C11.4009 53.5479 10.9036 54.4568 10.9036 56.7289V59.5692C10.9036 61.8792 11.2861 62.826 13.4286 62.826C15.4563 62.826 15.9537 61.8792 15.9537 59.6071Z" fill="#252525"/>
    <path d="M22.0368 63.6213C19.7796 63.7728 19.3588 62.9775 19.3588 60.5917V49.3822H20.277V60.6296C20.277 62.5231 20.5065 62.7881 22.0368 62.7881V63.6213Z" fill="#252525"/>
    <path d="M33.3614 50.2533L34.2796 50.1397V52.677H36.5368V53.548H34.2796V60.516C34.2796 62.5231 34.8917 62.9018 36.6516 62.7882V63.5835C34.1648 63.8107 33.3231 62.9018 33.3231 60.516V50.2533H33.3614Z" fill="#252525"/>
    <path d="M40.707 49.9503C40.707 50.8213 39.3297 50.8213 39.3297 49.9503C39.3297 49.1171 40.707 49.0793 40.707 49.9503ZM40.4775 63.5455H39.5593V52.6769H40.4775V63.5455Z" fill="#252525"/>
    <path d="M43.0023 59.6449V56.6911C43.0023 53.6615 44.1118 52.6769 46.4456 52.6769C48.7793 52.6769 49.8888 53.5857 49.8888 56.7289V59.6071C49.8888 62.5988 48.7793 63.6591 46.4456 63.6591C44.1118 63.697 43.0023 62.7881 43.0023 59.6449ZM48.9706 59.6071V56.7668C48.9706 54.4568 48.588 53.5479 46.4456 53.5479C44.4179 53.5479 43.9205 54.4568 43.9205 56.7289V59.5692C43.9205 61.8792 44.3031 62.826 46.4456 62.826C48.4733 62.826 48.9706 61.8792 48.9706 59.6071Z" fill="#252525"/>
    <path d="M61.9404 60.5539C61.9404 61.8036 62.5907 62.7124 64.5037 62.7124C66.187 62.7124 67.0287 61.9172 67.0287 60.516C67.0287 58.5468 65.4601 58.5089 63.9298 58.3195C62.476 58.1302 61.0604 57.7894 61.0604 55.5172C61.0604 53.7373 62.2082 52.6391 64.4271 52.6391C66.7226 52.6391 67.7174 53.7373 67.7174 55.4793H66.7992C66.7609 54.1539 66.1105 53.4722 64.4271 53.4722C62.7438 53.4722 62.0169 54.2296 62.0169 55.4793C62.0169 57.3349 63.3177 57.3728 64.7332 57.5243C66.3018 57.7515 67.9852 58.0923 67.9852 60.4781C67.9852 62.3716 66.8757 63.5835 64.5037 63.5835C62.3995 63.5835 61.0222 62.7503 61.0222 60.516H61.9404V60.5539Z" fill="#252525"/>
    <path d="M29.5737 52.8663V59.7207C29.5737 61.9929 29.0764 62.9396 27.0487 62.9396C24.9062 62.9396 24.5236 61.9929 24.5236 59.6828V52.8284H23.6054V59.7207C23.6054 62.8639 24.7149 63.7728 27.0487 63.7728C29.3824 63.7728 30.4919 62.7124 30.4919 59.7207V52.8284H29.5737V52.8663Z" fill="#252525"/>
    <path d="M58.038 63.5834V56.7289C58.038 54.4568 57.5406 53.51 55.5129 53.51C53.3704 53.51 52.9878 54.4568 52.9878 56.7668V63.6213H52.0696V56.7289C52.0696 53.5857 53.1791 52.6769 55.5129 52.6769C57.8467 52.6769 58.9562 53.7372 58.9562 56.7289V63.6213H58.038V63.5834Z" fill="#252525"/>
</svg>
