<svg width="66" height="48" viewBox="0 0 66 48" fill="none" xmlns="http://www.w3.org/2000/svg">
    <path d="M36.9862 14.2864C36.8427 14.0592 36.7566 13.7752 36.7566 13.4911C36.7566 13.2071 36.8427 12.8379 36.9862 12.6107C37.7896 11.3041 39.1095 9.31599 40.3433 7.61184C41.4911 5.99291 40.9172 5.51007 40.4868 5.02723C40.0564 4.57279 39.6834 4.26036 39.2817 3.97634C38.22 3.26628 37.6461 4.37397 37.6461 4.37397C37.6461 4.37397 33.2273 11.4178 32.5386 12.4118C32.2804 12.7811 32.1943 13.1219 32.1656 13.4627C32.1943 13.7752 32.2804 14.1444 32.5386 14.5136C33.2273 15.5077 37.7896 22.8071 37.7896 22.8071C37.7896 22.8071 38.3061 23.7728 39.2817 22.9491C39.7121 22.5799 40.0277 22.3243 40.4868 21.8982C40.9746 21.4722 41.5198 20.9041 40.3433 19.3136C39.1095 17.5811 37.7896 15.5929 36.9862 14.2864Z" fill="#A3B3CC"/>
    <path d="M65.6513 14.2864C65.6513 14.258 65.6513 14.258 65.6513 14.2864C65.6226 13.8319 65.4792 13.3207 65.1061 12.8095C64.1306 11.4177 57.4162 0.681646 57.4162 0.681646C57.4162 0.681646 56.8423 -0.397644 55.5224 0.823658C54.9772 1.3349 55.3216 0.994073 54.719 1.64733C54.0877 2.32898 53.5712 3.7207 55.2355 5.99289C57.0145 8.43549 58.8509 11.2473 59.9987 13.0935C60.1995 13.4059 60.2856 13.8319 60.2856 14.2296C60.2856 14.2296 60.2856 14.2864 60.2856 14.3148C60.2856 14.3432 60.2856 14.3716 60.2856 14.4C60.2856 14.7976 60.1995 15.2237 59.9987 15.5361C58.8509 17.4106 57.0145 20.1941 55.2355 22.6367C53.5999 24.9089 54.0877 26.3006 54.719 26.9822C55.3216 27.6355 54.9772 27.2947 55.5224 27.8059C56.8423 29.0272 57.4162 27.9479 57.4162 27.9479C57.4162 27.9479 64.1306 17.2118 65.1061 15.8201C65.4505 15.3089 65.6226 14.7976 65.6513 14.3432C65.6513 14.3148 65.6513 14.3148 65.6513 14.2864Z" fill="#A3B3CC"/>
    <path d="M28.6651 24.6817H29.2103L31.2188 33.5148H31.2475L32.1657 29.1125L33.3135 24.0852H34.0882L31.5918 34.7645H30.8171L29.6981 29.8509L28.952 26.1302L28.206 29.7941L27.0582 34.7645H26.2835L23.7871 24.0852H24.5619L25.7096 29.1125L26.6278 33.5148H26.6565L28.6651 24.6817Z" fill="#A3B3CC"/>
    <path d="M34.7769 31.839V29.6236C34.7769 27.3514 35.609 26.613 37.3594 26.613C39.1097 26.613 39.9418 27.2946 39.9418 29.652V31.8106C39.9418 34.0544 39.1097 34.8497 37.3594 34.8497C35.609 34.8781 34.7769 34.1964 34.7769 31.839ZM39.2531 31.8106V29.6804C39.2531 27.9479 38.9662 27.2662 37.3594 27.2662C35.8386 27.2662 35.4656 27.9479 35.4656 29.652V31.7822C35.4656 33.5148 35.7525 34.2248 37.3594 34.2248C38.8801 34.2248 39.2531 33.5148 39.2531 31.8106Z" fill="#A3B3CC"/>
    <path d="M42.4669 26.613L42.4956 27.5787C42.8399 26.9254 43.672 26.4426 44.6763 26.613V27.2663C43.4425 27.0675 42.553 27.8627 42.553 28.9988V34.7361H41.8643V26.5846H42.4669V26.613Z" fill="#A3B3CC"/>
    <path d="M50.6445 34.7644L47.7177 30.7313H46.943V34.7644H46.2257V24.1136H46.943V30.0497H47.7177L50.3289 26.613H51.161L48.2916 30.4189L51.5053 34.7928H50.6445V34.7644Z" fill="#A3B3CC"/>
    <path d="M5.05011 39.2805C5.05011 37.974 4.18929 37.4911 2.95546 37.4911C1.49208 37.4911 0.688649 37.9456 0.688649 39.6781C0.688649 41.6095 1.8364 41.5811 3.50064 41.7799C5.0788 41.9787 5.997 43.0012 5.997 44.5633C5.997 47.1763 4.73447 47.7728 2.86938 47.7728C0.975588 47.7728 0 46.9491 0 45.245H0.659958C0.659958 46.5515 1.40599 47.1195 2.86938 47.1195C4.64839 47.1195 5.27965 46.4095 5.27965 44.5633C5.27965 42.6604 3.93105 42.4331 2.3242 42.2911C1.20514 42.1775 0 41.6947 0 39.7065C0 37.6899 1.00428 36.8947 2.95546 36.8947C4.47623 36.8947 5.62398 37.4059 5.71006 39.3089H5.05011V39.2805Z" fill="#A3B3CC"/>
    <path d="M7.48907 44.7337V42.5183C7.48907 40.2461 8.32119 39.5077 10.0715 39.5077C11.8218 39.5077 12.654 40.1893 12.654 42.5467V44.7053C12.654 46.9491 11.8218 47.7444 10.0715 47.7444C8.32119 47.7728 7.48907 47.0911 7.48907 44.7337ZM11.9653 44.7053V42.5751C11.9653 40.8426 11.6784 40.1609 10.0715 40.1609C8.55074 40.1609 8.17772 40.8426 8.17772 42.5467V44.6769C8.17772 46.4094 8.46466 47.1195 10.0715 47.1195C11.5923 47.1195 11.9653 46.4094 11.9653 44.7053Z" fill="#A3B3CC"/>
    <path d="M16.5276 47.716C14.8347 47.8296 14.519 47.2331 14.519 45.4438V37.0367H15.2077V45.4722C15.2077 46.8923 15.3799 47.0911 16.5276 47.0911V47.716Z" fill="#A3B3CC"/>
    <path d="M25.0211 37.69L25.7097 37.6048V39.5077H27.4026V40.161H25.7097V45.387C25.7097 46.8923 26.1688 47.1764 27.4887 47.0911V47.6876C25.6236 47.858 24.9924 47.1764 24.9924 45.387V37.69H25.0211Z" fill="#A3B3CC"/>
    <path d="M30.5303 37.4627C30.5303 38.116 29.4973 38.116 29.4973 37.4627C29.4973 36.8379 30.5303 36.8095 30.5303 37.4627ZM30.3581 47.6592H29.6695V39.5077H30.3581V47.6592Z" fill="#A3B3CC"/>
    <path d="M32.2517 44.7337V42.5183C32.2517 40.2461 33.0839 39.5077 34.8342 39.5077C36.5845 39.5077 37.4166 40.1893 37.4166 42.5467V44.7053C37.4166 46.9491 36.5845 47.7444 34.8342 47.7444C33.0839 47.7728 32.2517 47.0911 32.2517 44.7337ZM36.728 44.7053V42.5751C36.728 40.8426 36.441 40.1609 34.8342 40.1609C33.3134 40.1609 32.9404 40.8426 32.9404 42.5467V44.6769C32.9404 46.4094 33.2273 47.1195 34.8342 47.1195C36.3549 47.1195 36.728 46.4094 36.728 44.7053Z" fill="#A3B3CC"/>
    <path d="M46.4552 45.4154C46.4552 46.3527 46.943 47.0343 48.3777 47.0343C49.6402 47.0343 50.2715 46.4379 50.2715 45.387C50.2715 43.9101 49.095 43.8817 47.9473 43.7397C46.8569 43.5977 45.7952 43.342 45.7952 41.6379C45.7952 40.303 46.656 39.4793 48.3203 39.4793C50.0419 39.4793 50.7879 40.303 50.7879 41.6095H50.0993C50.0706 40.6154 49.5828 40.1042 48.3203 40.1042C47.0578 40.1042 46.5126 40.6722 46.5126 41.6095C46.5126 43.0012 47.4882 43.0296 48.5498 43.1432C49.7263 43.3136 50.9888 43.5693 50.9888 45.3586C50.9888 46.7787 50.1567 47.6876 48.3777 47.6876C46.7995 47.6876 45.7665 47.0627 45.7665 45.387H46.4552V45.4154Z" fill="#A3B3CC"/>
    <path d="M22.1803 39.6497V44.7905C22.1803 46.4947 21.8073 47.2047 20.2865 47.2047C18.6796 47.2047 18.3927 46.4947 18.3927 44.7621V39.6213H17.704V44.7905C17.704 47.1479 18.5362 47.8296 20.2865 47.8296C22.0368 47.8296 22.8689 47.0343 22.8689 44.7905V39.6213H22.1803V39.6497Z" fill="#A3B3CC"/>
    <path d="M43.5285 47.6875V42.5467C43.5285 40.8426 43.1555 40.1325 41.6347 40.1325C40.0278 40.1325 39.7409 40.8426 39.7409 42.5751V47.7159H39.0522V42.5467C39.0522 40.1893 39.8844 39.5077 41.6347 39.5077C43.385 39.5077 44.2171 40.3029 44.2171 42.5467V47.7159H43.5285V47.6875Z" fill="#A3B3CC"/>
</svg>
