<svg width="16" height="16" viewBox="0 0 16 16" xmlns="http://www.w3.org/2000/svg">
    <path d="M7.99998 6.66634C7.83516 6.66634 7.67405 6.61747 7.53701 6.5259C7.39997 6.43433 7.29316 6.30418 7.23008 6.15191C7.16701 5.99964 7.15051 5.83208 7.18266 5.67043C7.21482 5.50878 7.29418 5.36029 7.41073 5.24375C7.52727 5.12721 7.67576 5.04784 7.83741 5.01569C7.99906 4.98353 8.16661 5.00004 8.31889 5.06311C8.47116 5.12618 8.60131 5.23299 8.69287 5.37003C8.78444 5.50707 8.83332 5.66819 8.83332 5.83301C8.83332 6.05402 8.74552 6.26598 8.58924 6.42226C8.43296 6.57854 8.221 6.66634 7.99998 6.66634ZM7.99998 7.66634C8.17679 7.66634 8.34636 7.73658 8.47139 7.8616C8.59641 7.98663 8.66665 8.1562 8.66665 8.33301V10.333C8.66665 10.5098 8.59641 10.6794 8.47139 10.8044C8.34636 10.9294 8.17679 10.9997 7.99998 10.9997C7.82317 10.9997 7.6536 10.9294 7.52858 10.8044C7.40355 10.6794 7.33332 10.5098 7.33332 10.333V8.33301C7.33332 8.1562 7.40355 7.98663 7.52858 7.8616C7.6536 7.73658 7.82317 7.66634 7.99998 7.66634ZM7.99998 1.33301C6.68144 1.33301 5.39251 1.724 4.29618 2.45654C3.19985 3.18909 2.34537 4.23028 1.84079 5.44845C1.3362 6.66663 1.20418 8.00707 1.46141 9.30028C1.71865 10.5935 2.35359 11.7814 3.28594 12.7137C4.21829 13.6461 5.40617 14.281 6.69938 14.5382C7.99259 14.7955 9.33303 14.6635 10.5512 14.1589C11.7694 13.6543 12.8106 12.7998 13.5431 11.7035C14.2757 10.6071 14.6666 9.31822 14.6666 7.99967C14.6647 6.23216 13.9617 4.5376 12.7119 3.28777C11.4621 2.03795 9.7675 1.33495 7.99998 1.33301ZM7.99998 13.333C6.94515 13.333 5.914 13.0202 5.03694 12.4342C4.15988 11.8481 3.47629 11.0152 3.07263 10.0407C2.66896 9.06611 2.56334 7.99376 2.76913 6.95919C2.97492 5.92463 3.48287 4.97432 4.22875 4.22844C4.97463 3.48256 5.92494 2.97461 6.9595 2.76882C7.99407 2.56303 9.06642 2.66865 10.041 3.07232C11.0155 3.47598 11.8485 4.15957 12.4345 5.03663C13.0205 5.9137 13.3333 6.94484 13.3333 7.99967C13.3316 9.41362 12.7691 10.7691 11.7693 11.769C10.7695 12.7688 9.41393 13.3312 7.99998 13.333Z"/>
</svg>
