<svg width="16" height="16" viewBox="0 0 16 16" xmlns="http://www.w3.org/2000/svg">
    <path d="M12.6667 6.66665C12.4899 6.66665 12.3203 6.73689 12.1953 6.86192C12.0703 6.98694 12 7.15651 12 7.33332V9.59332L11.0134 8.60665C10.8417 8.43391 10.6376 8.29682 10.4128 8.20327C10.188 8.10971 9.94689 8.06155 9.70337 8.06155C9.45986 8.06155 9.21876 8.10971 8.99393 8.20327C8.76911 8.29682 8.56501 8.43391 8.39337 8.60665L7.92671 9.07332L6.27337 7.41332C5.92499 7.06768 5.45412 6.87374 4.96337 6.87374C4.47262 6.87374 4.00176 7.06768 3.65337 7.41332L2.66671 8.39999V4.66665C2.66671 4.48984 2.73695 4.32027 2.86197 4.19525C2.98699 4.07022 3.15656 3.99999 3.33337 3.99999H8.66671C8.84352 3.99999 9.01309 3.92975 9.13811 3.80472C9.26314 3.6797 9.33337 3.51013 9.33337 3.33332C9.33337 3.15651 9.26314 2.98694 9.13811 2.86192C9.01309 2.73689 8.84352 2.66665 8.66671 2.66665H3.33337C2.80294 2.66665 2.29423 2.87737 1.91916 3.25244C1.54409 3.62751 1.33337 4.13622 1.33337 4.66665V12.6667C1.33337 13.1971 1.54409 13.7058 1.91916 14.0809C2.29423 14.4559 2.80294 14.6667 3.33337 14.6667H11.3334C11.8638 14.6667 12.3725 14.4559 12.7476 14.0809C13.1227 13.7058 13.3334 13.1971 13.3334 12.6667V7.33332C13.3334 7.15651 13.2631 6.98694 13.1381 6.86192C13.0131 6.73689 12.8435 6.66665 12.6667 6.66665ZM3.33337 13.3333C3.15656 13.3333 2.98699 13.2631 2.86197 13.1381C2.73695 13.013 2.66671 12.8435 2.66671 12.6667V10.2867L4.60004 8.35332C4.69798 8.25999 4.82808 8.20792 4.96337 8.20792C5.09866 8.20792 5.22877 8.25999 5.32671 8.35332L7.44004 10.4667L10.3 13.3333H3.33337ZM12 12.6667C11.9991 12.7943 11.957 12.9182 11.88 13.02L8.87337 9.99999L9.34004 9.53332C9.43748 9.43643 9.5693 9.38204 9.70671 9.38204C9.84412 9.38204 9.97594 9.43643 10.0734 9.53332L12 11.48V12.6667ZM13.6067 3.33332L14.4734 2.47332C14.5975 2.34841 14.6672 2.17944 14.6672 2.00332C14.6672 1.8272 14.5975 1.65823 14.4734 1.53332C14.4114 1.47083 14.3377 1.42124 14.2564 1.38739C14.1752 1.35355 14.088 1.33612 14 1.33612C13.912 1.33612 13.8249 1.35355 13.7437 1.38739C13.6624 1.42124 13.5887 1.47083 13.5267 1.53332L12.6667 2.39332L11.8067 1.53332C11.7447 1.47083 11.671 1.42124 11.5898 1.38739C11.5085 1.35355 11.4214 1.33612 11.3334 1.33612C11.2454 1.33612 11.1582 1.35355 11.077 1.38739C10.9958 1.42124 10.922 1.47083 10.86 1.53332C10.7359 1.65823 10.6662 1.8272 10.6662 2.00332C10.6662 2.17944 10.7359 2.34841 10.86 2.47332L11.7267 3.33332L10.86 4.19999C10.7359 4.32489 10.6662 4.49386 10.6662 4.66999C10.6662 4.84611 10.7359 5.01508 10.86 5.13999C10.922 5.20247 10.9958 5.25207 11.077 5.28591C11.1582 5.31976 11.2454 5.33718 11.3334 5.33718C11.4214 5.33718 11.5085 5.31976 11.5898 5.28591C11.671 5.25207 11.7447 5.20247 11.8067 5.13999L12.6667 4.27999L13.5267 5.13999C13.5887 5.20247 13.6624 5.25207 13.7437 5.28591C13.8249 5.31976 13.912 5.33718 14 5.33718C14.088 5.33718 14.1752 5.31976 14.2564 5.28591C14.3377 5.25207 14.4114 5.20247 14.4734 5.13999C14.5975 5.01508 14.6672 4.84611 14.6672 4.66999C14.6672 4.49386 14.5975 4.32489 14.4734 4.19999L13.6067 3.33332Z" />
</svg>
