<svg width="24" height="24" viewBox="0 0 24 24"  xmlns="http://www.w3.org/2000/svg">
    <path d="M13.07 10.4101C13.6774 9.56132 14.0041 8.54377 14.0041 7.50005C14.0041 6.45634 13.6774 5.43879 13.07 4.59005C13.6385 4.20201 14.3117 3.99622 15 4.00005C15.9283 4.00005 16.8185 4.3688 17.4749 5.02518C18.1313 5.68156 18.5 6.57179 18.5 7.50005C18.5 8.42831 18.1313 9.31855 17.4749 9.97493C16.8185 10.6313 15.9283 11.0001 15 11.0001C14.3117 11.0039 13.6385 10.7981 13.07 10.4101ZM5.5 7.50005C5.5 6.80782 5.70527 6.13113 6.08986 5.55556C6.47444 4.97998 7.02107 4.53138 7.66061 4.26647C8.30015 4.00157 9.00388 3.93226 9.68282 4.0673C10.3617 4.20235 10.9854 4.5357 11.4749 5.02518C11.9644 5.51466 12.2977 6.1383 12.4327 6.81724C12.5678 7.49617 12.4985 8.1999 12.2336 8.83944C11.9687 9.47899 11.5201 10.0256 10.9445 10.4102C10.3689 10.7948 9.69223 11.0001 9 11.0001C8.07174 11.0001 7.1815 10.6313 6.52513 9.97493C5.86875 9.31855 5.5 8.42831 5.5 7.50005ZM7.5 7.50005C7.5 7.79672 7.58797 8.08673 7.7528 8.33341C7.91762 8.58008 8.15189 8.77234 8.42597 8.88587C8.70006 8.9994 9.00166 9.02911 9.29264 8.97123C9.58361 8.91335 9.85088 8.77049 10.0607 8.56071C10.2704 8.35093 10.4133 8.08366 10.4712 7.79269C10.5291 7.50172 10.4994 7.20012 10.3858 6.92603C10.2723 6.65194 10.08 6.41767 9.83335 6.25285C9.58668 6.08803 9.29667 6.00005 9 6.00005C8.60218 6.00005 8.22064 6.15809 7.93934 6.43939C7.65804 6.7207 7.5 7.10223 7.5 7.50005ZM16 17.0001V19.0001H2V17.0001C2 17.0001 2 13.0001 9 13.0001C16 13.0001 16 17.0001 16 17.0001ZM14 17.0001C13.86 16.2201 12.67 15.0001 9 15.0001C5.33 15.0001 4.07 16.3101 4 17.0001H14ZM15.95 13.0001C16.5629 13.4768 17.064 14.0819 17.4182 14.7729C17.7723 15.4639 17.9709 16.2241 18 17.0001V19.0001H22V17.0001C22 17.0001 22 13.3701 15.94 13.0001H15.95Z"/>
</svg>
