<svg width="24" height="24" viewBox="0 0 24 24" xmlns="http://www.w3.org/2000/svg">
<path d="M14.8367 16.9578C15.0229 16.7712 15.1274 16.5187 15.1274 16.2556C15.1274 15.9924 15.0229 15.74 14.8367 15.5534L11.2967 11.9775L14.8367 8.45151C15.0229 8.26489 15.1274 8.01243 15.1274 7.74929C15.1274 7.48615 15.0229 7.2337 14.8367 7.04707C14.7437 6.95371 14.6331 6.87961 14.5112 6.82904C14.3894 6.77848 14.2587 6.75244 14.1267 6.75244C13.9946 6.75244 13.8639 6.77848 13.7421 6.82904C13.6202 6.87961 13.5096 6.95371 13.4167 7.04707L9.17666 11.2703C9.08293 11.3629 9.00854 11.4731 8.95777 11.5945C8.907 11.7159 8.88086 11.846 8.88086 11.9775C8.88086 12.109 8.907 12.2392 8.95777 12.3606C9.00854 12.482 9.08293 12.5921 9.17666 12.6847L13.4167 16.9578C13.5096 17.0512 13.6202 17.1253 13.7421 17.1758C13.8639 17.2264 13.9946 17.2524 14.1267 17.2524C14.2587 17.2524 14.3894 17.2264 14.5112 17.1758C14.6331 17.1253 14.7437 17.0512 14.8367 16.9578Z"/>
</svg>
