<svg width="24" height="24" viewBox="0 0 24 24" xmlns="http://www.w3.org/2000/svg">
<path d="M16.9595 9.16994C16.7729 8.98369 16.5204 8.87915 16.2573 8.87915C15.9942 8.87915 15.7417 8.98369 15.5551 9.16994L11.9792 12.7099L8.45322 9.16994C8.26659 8.98369 8.01414 8.87915 7.751 8.87915C7.48786 8.87915 7.2354 8.98369 7.04878 9.16994C6.95542 9.26291 6.88132 9.37351 6.83075 9.49537C6.78019 9.61723 6.75415 9.74793 6.75415 9.87994C6.75415 10.012 6.78019 10.1427 6.83075 10.2645C6.88132 10.3864 6.95542 10.497 7.04878 10.5899L11.2721 14.8299C11.3646 14.9237 11.4748 14.9981 11.5962 15.0488C11.7176 15.0996 11.8478 15.1257 11.9792 15.1257C12.1107 15.1257 12.2409 15.0996 12.3623 15.0488C12.4837 14.9981 12.5939 14.9237 12.6864 14.8299L16.9595 10.5899C17.0529 10.497 17.127 10.3864 17.1775 10.2645C17.2281 10.1427 17.2542 10.012 17.2542 9.87994C17.2542 9.74793 17.2281 9.61723 17.1775 9.49537C17.127 9.37351 17.0529 9.26291 16.9595 9.16994Z"/>
</svg>
