<svg width="24" height="24" viewBox="0 0 24 24" xmlns="http://www.w3.org/2000/svg">
<path d="M16.9595 14.8349C16.7729 15.0212 16.5204 15.1257 16.2573 15.1257C15.9942 15.1257 15.7417 15.0212 15.5551 14.8349L11.9792 11.2949L8.45322 14.8349C8.26659 15.0212 8.01414 15.1257 7.751 15.1257C7.48786 15.1257 7.2354 15.0212 7.04878 14.8349C6.95542 14.742 6.88132 14.6314 6.83075 14.5095C6.78019 14.3877 6.75415 14.257 6.75415 14.1249C6.75415 13.9929 6.78019 13.8622 6.83075 13.7404C6.88132 13.6185 6.95542 13.5079 7.04878 13.4149L11.2721 9.17495C11.3646 9.08122 11.4748 9.00683 11.5962 8.95606C11.7176 8.90529 11.8478 8.87915 11.9792 8.87915C12.1107 8.87915 12.2409 8.90529 12.3623 8.95606C12.4837 9.00683 12.5939 9.08122 12.6864 9.17495L16.9595 13.4149C17.0529 13.5079 17.127 13.6185 17.1775 13.7404C17.2281 13.8622 17.2542 13.9929 17.2542 14.1249C17.2542 14.257 17.2281 14.3877 17.1775 14.5095C17.127 14.6314 17.0529 14.742 16.9595 14.8349Z"/>
</svg>
