<svg width="24" height="24" viewBox="0 0 24 24" xmlns="http://www.w3.org/2000/svg">
<path d="M9.17165 16.9578C8.9854 16.7712 8.88086 16.5187 8.88086 16.2556C8.88086 15.9924 8.9854 15.74 9.17165 15.5534L12.7117 11.9775L9.17165 8.45151C8.9854 8.26489 8.88086 8.01243 8.88086 7.74929C8.88086 7.48615 8.9854 7.2337 9.17165 7.04707C9.26461 6.95371 9.37522 6.87961 9.49708 6.82904C9.61893 6.77848 9.74964 6.75244 9.88165 6.75244C10.0137 6.75244 10.1444 6.77848 10.2662 6.82904C10.3881 6.87961 10.4987 6.95371 10.5917 7.04707L14.8317 11.2703C14.9254 11.3629 14.9998 11.4731 15.0505 11.5945C15.1013 11.7159 15.1274 11.846 15.1274 11.9775C15.1274 12.109 15.1013 12.2392 15.0505 12.3606C14.9998 12.482 14.9254 12.5921 14.8317 12.6847L10.5917 16.9578C10.4987 17.0512 10.3881 17.1253 10.2662 17.1758C10.1444 17.2264 10.0137 17.2524 9.88165 17.2524C9.74964 17.2524 9.61893 17.2264 9.49708 17.1758C9.37522 17.1253 9.26461 17.0512 9.17165 16.9578Z"/>
</svg>
