<svg width="16" height="16" viewBox="0 0 16 16" xmlns="http://www.w3.org/2000/svg">
<path d="M14.562 10.634L9.99998 8L14.562 5.366C14.7898 5.23245 14.9555 5.01421 15.023 4.75892C15.0905 4.50362 15.0543 4.23199 14.9223 4.00331C14.7902 3.77462 14.5731 3.60744 14.3182 3.53825C14.0634 3.46906 13.7915 3.50348 13.562 3.634L8.99998 6.268V1C8.99998 0.734784 8.89463 0.48043 8.70709 0.292893C8.51955 0.105357 8.2652 0 7.99998 0C7.73477 0 7.48041 0.105357 7.29288 0.292893C7.10534 0.48043 6.99998 0.734784 6.99998 1V6.268L2.43798 3.634C2.20843 3.50348 1.93656 3.46906 1.68172 3.53825C1.42688 3.60744 1.20975 3.77462 1.07771 4.00331C0.945672 4.23199 0.90945 4.50362 0.976946 4.75892C1.04444 5.01421 1.21018 5.23245 1.43798 5.366L5.99998 8L1.43798 10.634C1.21018 10.7676 1.04444 10.9858 0.976946 11.2411C0.90945 11.4964 0.945672 11.768 1.07771 11.9967C1.20975 12.2254 1.42688 12.3926 1.68172 12.4617C1.93656 12.5309 2.20843 12.4965 2.43798 12.366L6.99998 9.732V15C6.99998 15.2652 7.10534 15.5196 7.29288 15.7071C7.48041 15.8946 7.73477 16 7.99998 16C8.2652 16 8.51955 15.8946 8.70709 15.7071C8.89463 15.5196 8.99998 15.2652 8.99998 15V9.732L13.562 12.366C13.7915 12.4965 14.0634 12.5309 14.3182 12.4617C14.5731 12.3926 14.7902 12.2254 14.9223 11.9967C15.0543 11.768 15.0905 11.4964 15.023 11.2411C14.9555 10.9858 14.7898 10.7676 14.562 10.634Z" />
</svg>
