<svg width="24" height="24" viewBox="0 0 24 24" xmlns="http://www.w3.org/2000/svg">
    <path d="M18.8066 12.585L12.511 18.8865C11.6857 19.6195 10.6113 20.0096 9.50764 19.9772C8.40397 19.9447 7.3544 19.4921 6.57365 18.7118C5.79289 17.9316 5.33994 16.8827 5.30745 15.7798C5.27497 14.6769 5.66539 13.6032 6.39887 12.7784L14.5484 4.63436C15.035 4.17248 15.6804 3.91496 16.3515 3.91496C17.0226 3.91496 17.6681 4.17248 18.1546 4.63436C18.6287 5.11444 18.8945 5.76177 18.8945 6.43623C18.8945 7.1107 18.6287 7.75803 18.1546 8.23811L11.1256 15.2522C11.0561 15.3271 10.9724 15.3875 10.8795 15.4301C10.7865 15.4726 10.6861 15.4965 10.584 15.5003C10.3776 15.5079 10.1767 15.4333 10.0254 15.2929C9.95051 15.2234 9.89003 15.1398 9.84744 15.0469C9.80485 14.9541 9.78098 14.8537 9.77719 14.7516C9.76955 14.5454 9.84419 14.3447 9.98468 14.1935L15.2106 8.98126C15.4024 8.78956 15.5102 8.52957 15.5102 8.25847C15.5102 7.98737 15.4024 7.72738 15.2106 7.53568C15.0188 7.34399 14.7586 7.2363 14.4873 7.2363C14.216 7.2363 13.9559 7.34399 13.764 7.53568L8.53813 12.7683C8.27663 13.0275 8.06909 13.336 7.92745 13.6758C7.78582 14.0157 7.7129 14.3802 7.7129 14.7483C7.7129 15.1164 7.78582 15.4809 7.92745 15.8207C8.06909 16.1606 8.27663 16.469 8.53813 16.7283C9.07231 17.2368 9.78176 17.5204 10.5195 17.5204C11.2572 17.5204 11.9667 17.2368 12.5009 16.7283L19.5197 9.70405C20.3294 8.83563 20.7702 7.68703 20.7493 6.50023C20.7283 5.31343 20.2472 4.18108 19.4073 3.34176C18.5674 2.50243 17.4343 2.02165 16.2467 2.00071C15.0591 1.97977 13.9098 2.42031 13.0408 3.2295L4.8912 11.3736C3.79223 12.5899 3.20529 14.1831 3.25266 15.8212C3.30003 17.4593 3.97807 19.016 5.1455 20.1669C6.31294 21.3178 7.87972 21.9742 9.51942 21.9993C11.1591 22.0243 12.7453 21.4162 13.9474 20.3015L20.2531 14.0102C20.3481 13.9153 20.4235 13.8026 20.4749 13.6786C20.5263 13.5546 20.5527 13.4217 20.5527 13.2874C20.5527 13.1532 20.5263 13.0203 20.4749 12.8963C20.4235 12.7723 20.3481 12.6596 20.2531 12.5647C20.1581 12.4697 20.0454 12.3944 19.9213 12.3431C19.7972 12.2917 19.6642 12.2653 19.5299 12.2653C19.3955 12.2653 19.2625 12.2917 19.1384 12.3431C19.0143 12.3944 18.9016 12.4697 18.8066 12.5647V12.585Z" />
</svg>
