<svg width="24" height="24" viewBox="0 0 24 24" xmlns="http://www.w3.org/2000/svg">
    <path d="M19.8899 9.5498C19.8068 9.38488 19.6796 9.2462 19.5225 9.14912C19.3654 9.05204 19.1845 9.00036 18.9999 8.9998H13.9999V2.9998C14.0106 2.78048 13.9488 2.56373 13.8241 2.383C13.6994 2.20227 13.5187 2.06761 13.3099 1.9998C13.1091 1.93374 12.8925 1.933 12.6913 1.99768C12.4901 2.06236 12.3145 2.18913 12.1899 2.3598L4.18986 13.3598C4.08963 13.5047 4.02944 13.6734 4.01539 13.849C4.00134 14.0246 4.03393 14.2008 4.10986 14.3598C4.17978 14.5415 4.30125 14.6989 4.45935 14.8126C4.61745 14.9263 4.80531 14.9914 4.99986 14.9998H9.99986V20.9998C10 21.2107 10.0668 21.4161 10.1908 21.5867C10.3147 21.7574 10.4894 21.8844 10.6899 21.9498C10.7903 21.9809 10.8947 21.9978 10.9999 21.9998C11.1576 22.0002 11.3133 21.9633 11.4541 21.892C11.5948 21.8208 11.7168 21.7172 11.8099 21.5898L19.8099 10.5898C19.9176 10.4406 19.9821 10.2646 19.9962 10.0811C20.0103 9.89756 19.9735 9.71373 19.8899 9.5498ZM11.9999 17.9198V13.9998C11.9999 13.7346 11.8945 13.4802 11.707 13.2927C11.5194 13.1052 11.2651 12.9998 10.9999 12.9998H6.99986L11.9999 6.0798V9.9998C11.9999 10.265 12.1052 10.5194 12.2928 10.7069C12.4803 10.8944 12.7346 10.9998 12.9999 10.9998H16.9999L11.9999 17.9198Z" />
</svg>
