<svg width="24" height="24" viewBox="0 0 24 24" xmlns="http://www.w3.org/2000/svg">
<path d="M21.17 2.06C20.4532 1.93653 19.7273 1.87298 19 1.87C16.5183 1.86796 14.0884 2.57957 12 3.92C9.90611 2.59717 7.47661 1.90303 4.99996 1.92C4.27261 1.92298 3.54677 1.98653 2.82996 2.11C2.59517 2.15048 2.38254 2.27346 2.23038 2.45679C2.07821 2.64013 1.9965 2.87177 1.99996 3.11V15.11C1.99782 15.2569 2.02809 15.4025 2.08861 15.5364C2.14914 15.6703 2.23843 15.7893 2.35014 15.8847C2.46184 15.9802 2.59322 16.0499 2.73492 16.0888C2.87662 16.1278 3.02515 16.135 3.16996 16.11C4.60298 15.8619 6.07116 15.9031 7.48803 16.2311C8.90489 16.5591 10.2418 17.1674 11.42 18.02L11.54 18.09H11.65C11.7609 18.1362 11.8798 18.16 12 18.16C12.1201 18.16 12.2391 18.1362 12.35 18.09H12.46L12.58 18.02C13.7499 17.1483 15.083 16.5203 16.5001 16.1734C17.9172 15.8264 19.3896 15.7674 20.83 16C20.9748 16.025 21.1233 16.0178 21.265 15.9788C21.4067 15.9399 21.5381 15.8702 21.6498 15.7747C21.7615 15.6793 21.8508 15.5603 21.9113 15.4264C21.9718 15.2925 22.0021 15.1469 22 15V3C21.9896 2.77215 21.9016 2.55471 21.7506 2.38374C21.5996 2.21276 21.3948 2.09854 21.17 2.06ZM11 15.35C9.14985 14.3767 7.09048 13.8687 4.99996 13.87H3.99996V3.87C4.33302 3.8508 4.66691 3.8508 4.99996 3.87C7.13335 3.86764 9.22018 4.49369 11 5.67V15.35ZM20 13.91H19C16.9094 13.9087 14.8501 14.4167 13 15.39V5.67C14.7797 4.49369 16.8666 3.86764 19 3.87C19.333 3.8508 19.6669 3.8508 20 3.87V13.91ZM21.17 18.06C20.4532 17.9365 19.7273 17.873 19 17.87C16.5183 17.868 14.0884 18.5796 12 19.92C9.91148 18.5796 7.4816 17.868 4.99996 17.87C4.27261 17.873 3.54677 17.9365 2.82996 18.06C2.69979 18.0807 2.57499 18.1268 2.46272 18.1959C2.35046 18.265 2.25296 18.3555 2.17583 18.4624C2.09869 18.5693 2.04345 18.6903 2.01327 18.8186C1.98308 18.9469 1.97856 19.0799 1.99996 19.21C2.05078 19.4697 2.20245 19.6986 2.42175 19.8467C2.64105 19.9948 2.9101 20.0499 3.16996 20C4.60298 19.7519 6.07116 19.7931 7.48803 20.1211C8.90489 20.4491 10.2418 21.0574 11.42 21.91C11.5893 22.0306 11.7921 22.0954 12 22.0954C12.2079 22.0954 12.4106 22.0306 12.58 21.91C13.7581 21.0574 15.095 20.4491 16.5119 20.1211C17.9288 19.7931 19.3969 19.7519 20.83 20C21.0898 20.0499 21.3589 19.9948 21.5782 19.8467C21.7975 19.6986 21.9491 19.4697 22 19.21C22.0214 19.0799 22.0168 18.9469 21.9867 18.8186C21.9565 18.6903 21.9012 18.5693 21.8241 18.4624C21.747 18.3555 21.6495 18.265 21.5372 18.1959C21.4249 18.1268 21.3001 18.0807 21.17 18.06Z"/>
</svg>
