<svg width="24" height="24" viewBox="0 0 24 24" xmlns="http://www.w3.org/2000/svg">
    <path d="M21.1701 2.06C20.4533 1.93653 19.7274 1.87298 19.0001 1.87C16.5184 1.86796 14.0886 2.57957 12.0001 3.92C9.90623 2.59717 7.47674 1.90303 5.00008 1.92C4.27273 1.92298 3.54689 1.98653 2.83008 2.11C2.59529 2.15048 2.38267 2.27346 2.2305 2.45679C2.07833 2.64013 1.99662 2.87177 2.00008 3.11V15.11C1.99794 15.2569 2.02821 15.4025 2.08873 15.5364C2.14926 15.6703 2.23855 15.7893 2.35026 15.8847C2.46197 15.9802 2.59334 16.0499 2.73504 16.0888C2.87674 16.1278 3.02528 16.135 3.17008 16.11C4.6031 15.8619 6.07129 15.9031 7.48815 16.2311C8.90501 16.5591 10.2419 17.1674 11.4201 18.02L11.5401 18.09H11.6501C11.761 18.1362 11.8799 18.16 12.0001 18.16C12.1202 18.16 12.2392 18.1362 12.3501 18.09H12.4601L12.5801 18.02C13.75 17.1483 15.0831 16.5203 16.5002 16.1734C17.9174 15.8264 19.3897 15.7674 20.8301 16C20.9749 16.025 21.1234 16.0178 21.2651 15.9788C21.4068 15.9399 21.5382 15.8702 21.6499 15.7747C21.7616 15.6793 21.8509 15.5603 21.9114 15.4264C21.972 15.2925 22.0022 15.1469 22.0001 15V3C21.9897 2.77215 21.9017 2.55471 21.7507 2.38374C21.5998 2.21276 21.3949 2.09854 21.1701 2.06ZM11.0001 15.35C9.14997 14.3767 7.0906 13.8687 5.00008 13.87H4.00008V3.87C4.33314 3.8508 4.66703 3.8508 5.00008 3.87C7.13347 3.86764 9.2203 4.49369 11.0001 5.67V15.35ZM20.0001 13.91H19.0001C16.9096 13.9087 14.8502 14.4167 13.0001 15.39V5.67C14.7799 4.49369 16.8667 3.86764 19.0001 3.87C19.3331 3.8508 19.667 3.8508 20.0001 3.87V13.91ZM21.1701 18.06C20.4533 17.9365 19.7274 17.873 19.0001 17.87C16.5184 17.868 14.0886 18.5796 12.0001 19.92C9.9116 18.5796 7.48172 17.868 5.00008 17.87C4.27273 17.873 3.54689 17.9365 2.83008 18.06C2.69991 18.0807 2.57511 18.1268 2.46285 18.1959C2.35059 18.265 2.25309 18.3555 2.17595 18.4624C2.09882 18.5693 2.04357 18.6903 2.01339 18.8186C1.98321 18.9469 1.97869 19.0799 2.00008 19.21C2.0509 19.4697 2.20257 19.6986 2.42188 19.8467C2.64118 19.9948 2.91022 20.0499 3.17008 20C4.6031 19.7519 6.07129 19.7931 7.48815 20.1211C8.90501 20.4491 10.2419 21.0574 11.4201 21.91C11.5894 22.0306 11.7922 22.0954 12.0001 22.0954C12.208 22.0954 12.4107 22.0306 12.5801 21.91C13.7583 21.0574 15.0952 20.4491 16.512 20.1211C17.9289 19.7931 19.3971 19.7519 20.8301 20C21.0899 20.0499 21.359 19.9948 21.5783 19.8467C21.7976 19.6986 21.9493 19.4697 22.0001 19.21C22.0215 19.0799 22.017 18.9469 21.9868 18.8186C21.9566 18.6903 21.9014 18.5693 21.8242 18.4624C21.7471 18.3555 21.6496 18.265 21.5373 18.1959C21.4251 18.1268 21.3003 18.0807 21.1701 18.06Z" />
</svg>
