<svg width="24" height="24" viewBox="0 0 24 24" xmlns="http://www.w3.org/2000/svg">
<path d="M9.14286 7.71429C8.74837 7.3198 8.10877 7.3198 7.71429 7.71429C7.3198 8.10877 7.3198 8.74837 7.71429 9.14286L10.5707 11.9993L7.71429 14.8557C7.3198 15.2502 7.3198 15.8898 7.71429 16.2843C8.10877 16.6788 8.74837 16.6788 9.14286 16.2843L11.9993 13.4279L12 13.4286L12.0007 13.4279L14.8571 16.2843C15.2516 16.6788 15.8912 16.6788 16.2857 16.2843C16.6802 15.8898 16.6802 15.2502 16.2857 14.8557L13.4293 11.9993L16.2857 9.14286C16.6802 8.74837 16.6802 8.10877 16.2857 7.71429C15.8912 7.3198 15.2516 7.3198 14.8571 7.71429L12.0007 10.5707L12 10.57L11.9993 10.5707L9.14286 7.71429Z"/>
</svg>
