<svg width="24" height="24" viewBox="0 0 24 24" xmlns="http://www.w3.org/2000/svg">
<path d="M13.4038 11.995L17.7003 7.70853C17.8884 7.52038 17.9941 7.2652 17.9941 6.99911C17.9941 6.73303 17.8884 6.47785 17.7003 6.2897C17.5121 6.10155 17.257 5.99585 16.9909 5.99585C16.7248 5.99585 16.4696 6.10155 16.2815 6.2897L11.995 10.5862L7.70853 6.2897C7.52038 6.10155 7.26519 5.99585 6.99911 5.99585C6.73303 5.99585 6.47784 6.10155 6.2897 6.2897C6.10155 6.47785 5.99585 6.73303 5.99585 6.99911C5.99585 7.2652 6.10155 7.52038 6.2897 7.70853L10.5862 11.995L6.2897 16.2815C6.19604 16.3744 6.12171 16.4849 6.07098 16.6066C6.02026 16.7284 5.99414 16.859 5.99414 16.9909C5.99414 17.1228 6.02026 17.2534 6.07098 17.3751C6.12171 17.4969 6.19604 17.6074 6.2897 17.7003C6.38258 17.7939 6.49309 17.8683 6.61485 17.919C6.73661 17.9697 6.86721 17.9958 6.99911 17.9958C7.13101 17.9958 7.26161 17.9697 7.38337 17.919C7.50513 17.8683 7.61564 17.7939 7.70853 17.7003L11.995 13.4038L16.2815 17.7003C16.3743 17.7939 16.4849 17.8683 16.6066 17.919C16.7284 17.9697 16.859 17.9958 16.9909 17.9958C17.1228 17.9958 17.2534 17.9697 17.3751 17.919C17.4969 17.8683 17.6074 17.7939 17.7003 17.7003C17.7939 17.6074 17.8683 17.4969 17.919 17.3751C17.9697 17.2534 17.9958 17.1228 17.9958 16.9909C17.9958 16.859 17.9697 16.7284 17.919 16.6066C17.8683 16.4849 17.7939 16.3744 17.7003 16.2815L13.4038 11.995Z"/>
</svg>
