<svg width="24" height="24" viewBox="0 0 24 24" xmlns="http://www.w3.org/2000/svg">
    <path d="M21.0004 3H2V5.11765H4.30005L7.58211 14.6735C7.79374 15.2854 8.17743 15.814 8.68148 16.1879C9.18553 16.5618 9.78573 16.7631 10.4012 16.7647H19.0004V14.6471H10.4012C9.98216 14.6471 9.60416 14.3665 9.46115 13.9504L8.97314 12.5294H18.2463C19.1364 12.5294 19.9264 11.8962 20.1694 10.9931L21.9624 4.35C22.0044 4.19239 22.0113 4.02665 21.9827 3.86573C21.9541 3.70481 21.8908 3.55306 21.7977 3.42235C21.7045 3.29164 21.5841 3.1855 21.4458 3.11224C21.3075 3.03897 21.155 3.00056 21.0004 3ZM18.2463 10.4118H8.24613L6.42809 5.11765H19.6754L18.2463 10.4118Z" />
    <path d="M10.5002 21C11.3286 21 12.0002 20.2889 12.0002 19.4118C12.0002 18.5346 11.3286 17.8235 10.5002 17.8235C9.67173 17.8235 9.00014 18.5346 9.00014 19.4118C9.00014 20.2889 9.67173 21 10.5002 21Z" />
    <path d="M16.5003 21C17.3287 21 18.0003 20.2889 18.0003 19.4118C18.0003 18.5346 17.3287 17.8235 16.5003 17.8235C15.6719 17.8235 15.0003 18.5346 15.0003 19.4118C15.0003 20.2889 15.6719 21 16.5003 21Z"/>
</svg>
