<svg width="20" height="16" viewBox="0 0 20 16" xmlns="http://www.w3.org/2000/svg">
<path d="M12.29 10.1901L9 13.4801L7.71 12.1901C7.61704 12.0964 7.50644 12.022 7.38458 11.9712C7.26272 11.9205 7.13201 11.8943 7 11.8943C6.86799 11.8943 6.73729 11.9205 6.61543 11.9712C6.49357 12.022 6.38297 12.0964 6.29 12.1901C6.10375 12.3775 5.99921 12.631 5.99921 12.8951C5.99921 13.1593 6.10375 13.4128 6.29 13.6001L8.29 15.6001C8.38297 15.6939 8.49357 15.7683 8.61543 15.819C8.73729 15.8698 8.86799 15.8959 9 15.8959C9.13201 15.8959 9.26272 15.8698 9.38458 15.819C9.50644 15.7683 9.61704 15.6939 9.71 15.6001L13.71 11.6001C13.8963 11.4128 14.0008 11.1593 14.0008 10.8951C14.0008 10.631 13.8963 10.3775 13.71 10.1901C13.617 10.0964 13.5064 10.022 13.3846 9.97125C13.2627 9.92048 13.132 9.89434 13 9.89434C12.868 9.89434 12.7373 9.92048 12.6154 9.97125C12.4936 10.022 12.383 10.0964 12.29 10.1901ZM16.42 4.32014C15.8083 2.91595 14.753 1.75114 13.4157 1.0043C12.0785 0.257457 10.5333 -0.0301882 9.01688 0.185465C7.5005 0.401118 6.0967 1.10816 5.02072 2.1982C3.94474 3.28824 3.25596 4.70109 3.06 6.22014C2.226 6.42707 1.4808 6.89707 0.934742 7.56056C0.388689 8.22405 0.0708134 9.04574 0.0281821 9.90398C-0.0144493 10.7622 0.22043 11.6114 0.698042 12.3257C1.17565 13.04 1.87061 13.5816 2.68 13.8701C2.80773 13.9372 2.94846 13.9758 3.09251 13.9833C3.23656 13.9908 3.38054 13.9671 3.51456 13.9137C3.64857 13.8604 3.76946 13.7786 3.86892 13.6742C3.96839 13.5697 4.04407 13.4449 4.09078 13.3085C4.13749 13.172 4.15412 13.027 4.13953 12.8835C4.12494 12.74 4.07947 12.6013 4.00625 12.477C3.93303 12.3528 3.83379 12.2458 3.71533 12.1635C3.59688 12.0812 3.46202 12.0254 3.32 12.0001C2.93024 11.8592 2.59387 11.6007 2.3574 11.2604C2.12093 10.92 1.99604 10.5146 2 10.1001C2 9.56971 2.21072 9.061 2.58579 8.68593C2.96086 8.31085 3.46957 8.10014 4 8.10014C4.26522 8.10014 4.51957 7.99478 4.70711 7.80725C4.89465 7.61971 5 7.36536 5 7.10014C5.0049 5.91827 5.42829 4.77634 6.19507 3.87696C6.96185 2.97757 8.02244 2.37888 9.18866 2.18711C10.3549 1.99534 11.5513 2.22288 12.5657 2.82937C13.5801 3.43585 14.3469 4.38207 14.73 5.50014C14.7887 5.67012 14.8921 5.82113 15.0293 5.93728C15.1666 6.05343 15.3327 6.13042 15.51 6.16014C16.1761 6.28601 16.7799 6.63374 17.223 7.14668C17.6662 7.65961 17.9226 8.3075 17.9504 8.98478C17.9782 9.66206 17.7759 10.3288 17.3763 10.8764C16.9767 11.4239 16.4035 11.82 15.75 12.0001C15.4848 12.0333 15.2436 12.1704 15.0795 12.3814C14.9154 12.5924 14.8419 12.8599 14.875 13.1251C14.9082 13.3904 15.0453 13.6315 15.2563 13.7956C15.4673 13.9597 15.7348 14.0333 16 14.0001H16.25C17.3024 13.7221 18.2353 13.1081 18.907 12.2516C19.5787 11.3951 19.9526 10.3427 19.9718 9.25441C19.9911 8.16607 19.6546 7.10118 19.0136 6.22146C18.3725 5.34174 17.4619 4.69524 16.42 4.38014V4.32014Z"/>
</svg>
