<svg width="24" height="24" viewBox="0 0 24 24" xmlns="http://www.w3.org/2000/svg">
<path d="M8.66667 14.4545V12.8182H18.6667V14.4545H8.66667Z" fill="black"/>
<path d="M8.66667 6.27273H12V11.1818H8.66667V6.27273Z" fill="black"/>
<path d="M18.6667 7.90909H13.6667V6.27273H18.6667V7.90909Z" fill="black"/>
<path d="M13.6667 9.54545H18.6667V11.1818H13.6667V9.54545Z" fill="black"/>
<path fill-rule="evenodd" clip-rule="evenodd" d="M7 3H20.3333C21.2583 3 22 3.72818 22 4.63636V16.0909C22 16.9991 21.2583 17.7273 20.3333 17.7273H7C6.075 17.7273 5.33333 16.9991 5.33333 16.0909V4.63636C5.33333 3.72818 6.075 3 7 3ZM20.3333 16.0909V4.63636H7V16.0909H20.3333Z" fill="black"/>
<path d="M3.66667 19.3636V7.10606C3.66667 6.64582 3.29357 6.27273 2.83333 6.27273C2.3731 6.27273 2 6.64582 2 7.10606V19.3636C2 19.7976 2.17559 20.2138 2.48816 20.5207C2.80072 20.8276 3.22464 21 3.66667 21H16.1818C16.6337 21 17 20.6337 17 20.1818C17 19.7299 16.6337 19.3636 16.1818 19.3636H3.66667Z"/>
</svg>
