<svg width="24" height="24" viewBox="0 0 24 24" xmlns="http://www.w3.org/2000/svg">
    <path d="M13.4038 11.9951L17.7003 7.70859C17.8884 7.52044 17.9941 7.26526 17.9941 6.99918C17.9941 6.73309 17.8884 6.47791 17.7003 6.28976C17.5121 6.10161 17.257 5.99591 16.9909 5.99591C16.7248 5.99591 16.4696 6.10161 16.2815 6.28976L11.995 10.5862L7.70853 6.28976C7.52038 6.10161 7.26519 5.99591 6.99911 5.99591C6.73303 5.99591 6.47784 6.10161 6.2897 6.28976C6.10155 6.47791 5.99585 6.73309 5.99585 6.99918C5.99585 7.26526 6.10155 7.52044 6.2897 7.70859L10.5862 11.9951L6.2897 16.2815C6.19604 16.3744 6.12171 16.4849 6.07098 16.6067C6.02026 16.7284 5.99414 16.859 5.99414 16.9909C5.99414 17.1228 6.02026 17.2534 6.07098 17.3752C6.12171 17.497 6.19604 17.6075 6.2897 17.7004C6.38258 17.794 6.49309 17.8683 6.61485 17.9191C6.73661 17.9698 6.86721 17.9959 6.99911 17.9959C7.13101 17.9959 7.26161 17.9698 7.38337 17.9191C7.50513 17.8683 7.61564 17.794 7.70853 17.7004L11.995 13.4039L16.2815 17.7004C16.3743 17.794 16.4849 17.8683 16.6066 17.9191C16.7284 17.9698 16.859 17.9959 16.9909 17.9959C17.1228 17.9959 17.2534 17.9698 17.3751 17.9191C17.4969 17.8683 17.6074 17.794 17.7003 17.7004C17.7939 17.6075 17.8683 17.497 17.919 17.3752C17.9697 17.2534 17.9958 17.1228 17.9958 16.9909C17.9958 16.859 17.9697 16.7284 17.919 16.6067C17.8683 16.4849 17.7939 16.3744 17.7003 16.2815L13.4038 11.9951Z"/>
</svg>
