<svg width="24" height="24" viewBox="0 0 24 24" xmlns="http://www.w3.org/2000/svg">
<path d="M8.14286 6.71429C7.74837 6.3198 7.10877 6.3198 6.71429 6.71429C6.3198 7.10877 6.3198 7.74837 6.71429 8.14286L10.5707 11.9993L6.71429 15.8557C6.3198 16.2502 6.3198 16.8898 6.71429 17.2843C7.10877 17.6788 7.74837 17.6788 8.14286 17.2843L11.9993 13.4279L12 13.4286L12.0007 13.4279L15.8571 17.2843C16.2516 17.6788 16.8912 17.6788 17.2857 17.2843C17.6802 16.8898 17.6802 16.2502 17.2857 15.8557L13.4293 11.9993L17.2857 8.14286C17.6802 7.74837 17.6802 7.10877 17.2857 6.71429C16.8912 6.3198 16.2516 6.3198 15.8571 6.71429L12.0007 10.5707L12 10.57L11.9993 10.5707L8.14286 6.71429Z"/>
</svg>
