<svg width="24" height="24" viewBox="0 0 24 24" xmlns="http://www.w3.org/2000/svg">
<path d="M10.3371 13.1111C10.1173 12.7822 10 12.3956 10 12C10 11.4696 10.2107 10.9609 10.5858 10.5858C10.9609 10.2107 11.4696 10 12 10C12.3956 10 12.7822 10.1173 13.1111 10.3371C13.44 10.5568 13.6964 10.8692 13.8478 11.2346C13.9991 11.6001 14.0387 12.0022 13.9616 12.3902C13.8844 12.7781 13.6939 13.1345 13.4142 13.4142C13.1345 13.6939 12.7781 13.8844 12.3902 13.9616C12.0022 14.0387 11.6001 13.9991 11.2346 13.8478C10.8692 13.6964 10.5568 13.44 10.3371 13.1111Z"/>
</svg>
