<svg width="24" height="24" viewBox="0 0 24 24" xmlns="http://www.w3.org/2000/svg">
<path d="M5 18H9.24C9.37161 18.0008 9.50207 17.9755 9.62391 17.9258C9.74574 17.876 9.85656 17.8027 9.95 17.71L16.87 10.78L19.71 8C19.8037 7.90704 19.8781 7.79644 19.9289 7.67458C19.9797 7.55272 20.0058 7.42201 20.0058 7.29C20.0058 7.15799 19.9797 7.02728 19.9289 6.90542C19.8781 6.78356 19.8037 6.67296 19.71 6.58L15.47 2.29C15.377 2.19627 15.2664 2.12188 15.1446 2.07111C15.0227 2.02034 14.892 1.9942 14.76 1.9942C14.628 1.9942 14.4973 2.02034 14.3754 2.07111C14.2536 2.12188 14.143 2.19627 14.05 2.29L11.23 5.12L4.29 12.05C4.19732 12.1434 4.12399 12.2543 4.07423 12.3761C4.02446 12.4979 3.99924 12.6284 4 12.76V17C4 17.2652 4.10536 17.5196 4.29289 17.7071C4.48043 17.8946 4.73478 18 5 18ZM14.76 4.41L17.59 7.24L16.17 8.66L13.34 5.83L14.76 4.41ZM6 13.17L11.93 7.24L14.76 10.07L8.83 16H6V13.17ZM21 20H3C2.73478 20 2.48043 20.1054 2.29289 20.2929C2.10536 20.4804 2 20.7348 2 21C2 21.2652 2.10536 21.5196 2.29289 21.7071C2.48043 21.8946 2.73478 22 3 22H21C21.2652 22 21.5196 21.8946 21.7071 21.7071C21.8946 21.5196 22 21.2652 22 21C22 20.7348 21.8946 20.4804 21.7071 20.2929C21.5196 20.1054 21.2652 20 21 20Z"/>
</svg>
