<svg width="24" height="24" viewBox="0 0 24 24" xmlns="http://www.w3.org/2000/svg">
    <path d="M22 7.23999C22.0008 7.10838 21.9756 6.97792 21.9258 6.85608C21.876 6.73424 21.8027 6.62343 21.71 6.52999L17.47 2.28999C17.3766 2.1973 17.2658 2.12398 17.1439 2.07421C17.0221 2.02445 16.8916 1.99923 16.76 1.99999C16.6284 1.99923 16.4979 2.02445 16.3761 2.07421C16.2543 2.12398 16.1435 2.1973 16.05 2.28999L13.22 5.11999L2.29002 16.05C2.19734 16.1434 2.12401 16.2542 2.07425 16.3761C2.02448 16.4979 1.99926 16.6284 2.00002 16.76V21C2.00002 21.2652 2.10537 21.5196 2.29291 21.7071C2.48045 21.8946 2.7348 22 3.00002 22H7.24002C7.37994 22.0076 7.51991 21.9857 7.65084 21.9358C7.78176 21.8858 7.90073 21.8089 8.00002 21.71L18.87 10.78L21.71 7.99999C21.8013 7.90307 21.8757 7.79152 21.93 7.66999C21.9397 7.59028 21.9397 7.5097 21.93 7.42999C21.9347 7.38344 21.9347 7.33654 21.93 7.28999L22 7.23999ZM6.83002 20H4.00002V17.17L13.93 7.23999L16.76 10.07L6.83002 20ZM18.17 8.65999L15.34 5.82999L16.76 4.41999L19.58 7.23999L18.17 8.65999Z" />
</svg>
