<svg width="24" height="24" viewBox="0 0 24 24" xmlns="http://www.w3.org/2000/svg">
<path d="M10.9399 6.08C11.2907 6.02624 11.6451 5.99949 11.9999 6C15.1799 6 18.1699 8.29 19.9099 12C19.6438 12.5646 19.3433 13.1123 19.0099 13.64C18.9041 13.8038 18.8485 13.995 18.8499 14.19C18.8522 14.4082 18.9257 14.6198 19.0594 14.7923C19.1931 14.9648 19.3795 15.0889 19.5903 15.1455C19.8011 15.2022 20.0246 15.1883 20.2267 15.1061C20.4289 15.0238 20.5986 14.8777 20.7099 14.69C21.1759 13.9579 21.5806 13.1887 21.9199 12.39C21.9736 12.2652 22.0013 12.1308 22.0013 11.995C22.0013 11.8592 21.9736 11.7248 21.9199 11.6C19.8999 6.91 16.0999 4 11.9999 4C11.5306 3.99764 11.062 4.0378 10.5999 4.12C10.4686 4.14233 10.343 4.1903 10.2302 4.26118C10.1174 4.33206 10.0197 4.42446 9.94263 4.5331C9.86555 4.64175 9.81063 4.76451 9.78101 4.89438C9.75138 5.02425 9.74762 5.15868 9.76994 5.29C9.79227 5.42132 9.84024 5.54696 9.91112 5.65975C9.982 5.77253 10.0744 5.87024 10.183 5.94732C10.2917 6.02439 10.4144 6.07931 10.5443 6.10894C10.6742 6.13857 10.8086 6.14233 10.9399 6.12V6.08ZM3.70994 2.29C3.6167 2.19676 3.50601 2.1228 3.38419 2.07234C3.26237 2.02188 3.1318 1.99591 2.99994 1.99591C2.86808 1.99591 2.73751 2.02188 2.61569 2.07234C2.49387 2.1228 2.38318 2.19676 2.28994 2.29C2.10164 2.47831 1.99585 2.7337 1.99585 3C1.99585 3.2663 2.10164 3.5217 2.28994 3.71L5.38994 6.8C3.97551 8.16153 2.8498 9.79399 2.07994 11.6C2.02488 11.7262 1.99646 11.8623 1.99646 12C1.99646 12.1377 2.02488 12.2738 2.07994 12.4C4.09994 17.09 7.89994 20 11.9999 20C13.797 19.9876 15.5517 19.4525 17.0499 18.46L20.2899 21.71C20.3829 21.8037 20.4935 21.8781 20.6154 21.9289C20.7372 21.9797 20.8679 22.0058 20.9999 22.0058C21.132 22.0058 21.2627 21.9797 21.3845 21.9289C21.5064 21.8781 21.617 21.8037 21.7099 21.71C21.8037 21.617 21.8781 21.5064 21.9288 21.3846C21.9796 21.2627 22.0057 21.132 22.0057 21C22.0057 20.868 21.9796 20.7373 21.9288 20.6154C21.8781 20.4936 21.8037 20.383 21.7099 20.29L3.70994 2.29ZM10.0699 11.48L12.5199 13.93C12.3509 13.9785 12.1758 14.002 11.9999 14C11.4695 14 10.9608 13.7893 10.5857 13.4142C10.2107 13.0391 9.99994 12.5304 9.99994 12C9.99789 11.8242 10.0215 11.649 10.0699 11.48ZM11.9999 18C8.81994 18 5.82994 15.71 4.09994 12C4.74603 10.5738 5.66301 9.28658 6.79994 8.21L8.56994 10C8.15419 10.7588 7.99568 11.6319 8.1182 12.4885C8.24072 13.345 8.63766 14.1387 9.24947 14.7505C9.86128 15.3623 10.655 15.7592 11.5115 15.8817C12.368 16.0043 13.2411 15.8458 13.9999 15.43L15.5899 17C14.501 17.6409 13.2634 17.9856 11.9999 18Z"/>
</svg>
