<svg width="24" height="24" viewBox="0 0 24 24" xmlns="http://www.w3.org/2000/svg">
    <path d="M7.23529 12.1176C7.23529 13.2866 6.28659 14.2353 5.11765 14.2353C3.94871 14.2353 3 13.2866 3 12.1176C3 10.9487 3.94871 10 5.11765 10C6.28659 10 7.23529 10.9487 7.23529 12.1176ZM12 10C10.8311 10 9.88235 10.9487 9.88235 12.1176C9.88235 13.2866 10.8311 14.2353 12 14.2353C13.1689 14.2353 14.1176 13.2866 14.1176 12.1176C14.1176 10.9487 13.1689 10 12 10ZM18.8824 10C17.7134 10 16.7647 10.9487 16.7647 12.1176C16.7647 13.2866 17.7134 14.2353 18.8824 14.2353C20.0513 14.2353 21 13.2866 21 12.1176C21 10.9487 20.0513 10 18.8824 10Z"/>
</svg>
