<svg width="24" height="24" viewBox="0 0 24 24" xmlns="http://www.w3.org/2000/svg">
    <path d="M22.6464 12.3536C22.8417 12.1583 22.8417 11.8417 22.6464 11.6464L19.8536 8.85355C19.5386 8.53857 19 8.76165 19 9.20711V11H11C10.4477 11 10 11.4477 10 12C10 12.5523 10.4477 13 11 13H19V14.7929C19 15.2383 19.5386 15.4614 19.8536 15.1464L22.6464 12.3536ZM1 18V6C1 5.46957 1.21071 4.96086 1.58579 4.58579C1.96086 4.21071 2.46957 4 3 4H15C15.5304 4 16.0391 4.21071 16.4142 4.58579C16.7893 4.96086 17 5.46957 17 6V8C17 8.55228 16.5523 9 16 9C15.4477 9 15 8.55228 15 8V6H3V18H15V16C15 15.4477 15.4477 15 16 15C16.5523 15 17 15.4477 17 16V18C17 18.5304 16.7893 19.0391 16.4142 19.4142C16.0391 19.7893 15.5304 20 15 20H3C2.46957 20 1.96086 19.7893 1.58579 19.4142C1.21071 19.0391 1 18.5304 1 18Z" />
</svg>
