<svg width="24" height="24" viewBox="0 0 24 24" xmlns="http://www.w3.org/2000/svg">
    <path d="M19 10C18.7348 10 18.4804 10.1054 18.2929 10.2929C18.1054 10.4804 18 10.7348 18 11V14.39L16.52 12.91C16.2626 12.6509 15.9564 12.4453 15.6192 12.3049C15.2819 12.1646 14.9203 12.0924 14.555 12.0924C14.1897 12.0924 13.8281 12.1646 13.4908 12.3049C13.1536 12.4453 12.8474 12.6509 12.59 12.91L11.89 13.61L9.41 11.12C8.88742 10.6016 8.18113 10.3106 7.445 10.3106C6.70887 10.3106 6.00258 10.6016 5.48 11.12L4 12.6V7.00001C4 6.73479 4.10536 6.48044 4.29289 6.2929C4.48043 6.10537 4.73478 6.00001 5 6.00001H13C13.2652 6.00001 13.5196 5.89465 13.7071 5.70712C13.8946 5.51958 14 5.26523 14 5.00001C14 4.73479 13.8946 4.48044 13.7071 4.2929C13.5196 4.10537 13.2652 4.00001 13 4.00001H5C4.20435 4.00001 3.44129 4.31608 2.87868 4.87869C2.31607 5.4413 2 6.20436 2 7.00001V19C2 19.7957 2.31607 20.5587 2.87868 21.1213C3.44129 21.6839 4.20435 22 5 22H17C17.7956 22 18.5587 21.6839 19.1213 21.1213C19.6839 20.5587 20 19.7957 20 19V11C20 10.7348 19.8946 10.4804 19.7071 10.2929C19.5196 10.1054 19.2652 10 19 10ZM5 20C4.73478 20 4.48043 19.8947 4.29289 19.7071C4.10536 19.5196 4 19.2652 4 19V15.43L6.9 12.53C7.04691 12.39 7.24206 12.3119 7.445 12.3119C7.64794 12.3119 7.84309 12.39 7.99 12.53L11.16 15.7L15.45 20H5ZM18 19C17.9986 19.1914 17.9354 19.3773 17.82 19.53L13.31 15L14.01 14.3C14.1562 14.1547 14.3539 14.0731 14.56 14.0731C14.7661 14.0731 14.9638 14.1547 15.11 14.3L18 17.22V19ZM20.41 5.00001L21.71 3.71001C21.8962 3.52265 22.0008 3.2692 22.0008 3.00501C22.0008 2.74082 21.8962 2.48737 21.71 2.30001C21.617 2.20628 21.5064 2.13189 21.3846 2.08112C21.2627 2.03035 21.132 2.00421 21 2.00421C20.868 2.00421 20.7373 2.03035 20.6154 2.08112C20.4936 2.13189 20.383 2.20628 20.29 2.30001L19 3.59001L17.71 2.30001C17.617 2.20628 17.5064 2.13189 17.3846 2.08112C17.2627 2.03035 17.132 2.00421 17 2.00421C16.868 2.00421 16.7373 2.03035 16.6154 2.08112C16.4936 2.13189 16.383 2.20628 16.29 2.30001C16.1038 2.48737 15.9992 2.74082 15.9992 3.00501C15.9992 3.2692 16.1038 3.52265 16.29 3.71001L17.59 5.00001L16.29 6.30001C16.1038 6.48737 15.9992 6.74082 15.9992 7.00501C15.9992 7.2692 16.1038 7.52265 16.29 7.71001C16.383 7.80374 16.4936 7.87813 16.6154 7.9289C16.7373 7.97967 16.868 8.00581 17 8.00581C17.132 8.00581 17.2627 7.97967 17.3846 7.9289C17.5064 7.87813 17.617 7.80374 17.71 7.71001L19 6.42001L20.29 7.71001C20.383 7.80374 20.4936 7.87813 20.6154 7.9289C20.7373 7.97967 20.868 8.00581 21 8.00581C21.132 8.00581 21.2627 7.97967 21.3846 7.9289C21.5064 7.87813 21.617 7.80374 21.71 7.71001C21.8962 7.52265 22.0008 7.2692 22.0008 7.00501C22.0008 6.74082 21.8962 6.48737 21.71 6.30001L20.41 5.00001Z" />
</svg>
