<svg width="24" height="24" viewBox="0 0 24 24" xmlns="http://www.w3.org/2000/svg">
    <path d="M14.29 14.1901L11 17.4801L9.71 16.1901C9.61704 16.0964 9.50644 16.022 9.38458 15.9712C9.26272 15.9205 9.13201 15.8943 9 15.8943C8.86799 15.8943 8.73729 15.9205 8.61543 15.9712C8.49357 16.022 8.38297 16.0964 8.29 16.1901C8.10375 16.3775 7.99921 16.631 7.99921 16.8951C7.99921 17.1593 8.10375 17.4128 8.29 17.6001L10.29 19.6001C10.383 19.6939 10.4936 19.7683 10.6154 19.819C10.7373 19.8698 10.868 19.8959 11 19.8959C11.132 19.8959 11.2627 19.8698 11.3846 19.819C11.5064 19.7683 11.617 19.6939 11.71 19.6001L15.71 15.6001C15.8963 15.4128 16.0008 15.1593 16.0008 14.8951C16.0008 14.631 15.8963 14.3775 15.71 14.1901C15.617 14.0964 15.5064 14.022 15.3846 13.9712C15.2627 13.9205 15.132 13.8943 15 13.8943C14.868 13.8943 14.7373 13.9205 14.6154 13.9712C14.4936 14.022 14.383 14.0964 14.29 14.1901ZM18.42 8.32014C17.8083 6.91595 16.753 5.75114 15.4157 5.0043C14.0785 4.25746 12.5333 3.96981 11.0169 4.18546C9.5005 4.40112 8.0967 5.10816 7.02072 6.1982C5.94474 7.28824 5.25596 8.70109 5.06 10.2201C4.226 10.4271 3.4808 10.8971 2.93474 11.5606C2.38869 12.224 2.07081 13.0457 2.02818 13.904C1.98555 14.7622 2.22043 15.6114 2.69804 16.3257C3.17565 17.04 3.87061 17.5816 4.68 17.8701C4.80773 17.9372 4.94846 17.9758 5.09251 17.9833C5.23656 17.9908 5.38054 17.9671 5.51456 17.9137C5.64857 17.8604 5.76946 17.7786 5.86892 17.6742C5.96839 17.5697 6.04407 17.4449 6.09078 17.3085C6.13749 17.172 6.15412 17.027 6.13953 16.8835C6.12494 16.74 6.07947 16.6013 6.00625 16.477C5.93303 16.3528 5.83379 16.2458 5.71533 16.1635C5.59688 16.0812 5.46202 16.0254 5.32 16.0001C4.93024 15.8592 4.59387 15.6007 4.3574 15.2604C4.12093 14.92 3.99604 14.5146 4 14.1001C4 13.5697 4.21072 13.061 4.58579 12.6859C4.96086 12.3109 5.46957 12.1001 6 12.1001C6.26522 12.1001 6.51957 11.9948 6.70711 11.8072C6.89465 11.6197 7 11.3654 7 11.1001C7.0049 9.91827 7.42829 8.77634 8.19507 7.87696C8.96185 6.97757 10.0224 6.37888 11.1887 6.18711C12.3549 5.99534 13.5513 6.22288 14.5657 6.82937C15.5801 7.43585 16.3469 8.38207 16.73 9.50014C16.7887 9.67012 16.8921 9.82113 17.0293 9.93728C17.1666 10.0534 17.3327 10.1304 17.51 10.1601C18.1761 10.286 18.7799 10.6337 19.223 11.1467C19.6662 11.6596 19.9226 12.3075 19.9504 12.9848C19.9782 13.6621 19.7759 14.3288 19.3763 14.8764C18.9767 15.4239 18.4035 15.82 17.75 16.0001C17.4848 16.0333 17.2436 16.1704 17.0795 16.3814C16.9154 16.5924 16.8419 16.8599 16.875 17.1251C16.9082 17.3904 17.0453 17.6315 17.2563 17.7956C17.4673 17.9597 17.7348 18.0333 18 18.0001H18.25C19.3024 17.7221 20.2353 17.1081 20.907 16.2516C21.5787 15.3951 21.9526 14.3427 21.9718 13.2544C21.9911 12.1661 21.6546 11.1012 21.0136 10.2215C20.3725 9.34174 19.4619 8.69524 18.42 8.38014V8.32014Z" />
</svg>
