<svg width="24" height="24" viewBox="0 0 24 24" xmlns="http://www.w3.org/2000/svg">
    <path d="M10.6977 18.3945C12.4055 18.3941 14.0642 17.8224 15.4096 16.7704L19.6394 21L21 19.6395L16.7701 15.4099C17.8228 14.0645 18.3949 12.4055 18.3953 10.6972C18.3953 6.45318 14.9419 3 10.6977 3C6.45336 3 3 6.45318 3 10.6972C3 14.9413 6.45336 18.3945 10.6977 18.3945ZM10.6977 4.92431C13.8816 4.92431 16.4709 7.51347 16.4709 10.6972C16.4709 13.881 13.8816 16.4702 10.6977 16.4702C7.51371 16.4702 4.92441 13.881 4.92441 10.6972C4.92441 7.51347 7.51371 4.92431 10.6977 4.92431Z" />
</svg>
