<svg width="24" height="24" viewBox="0 0 24 24" xmlns="http://www.w3.org/2000/svg">
<path fill-rule="evenodd" clip-rule="evenodd" d="M15.8992 17.3199C14.5452 18.3729 12.8438 19 10.996 19C6.57994 19 3 15.4183 3 11C3 6.58172 6.57994 3 10.996 3C15.4121 3 18.992 6.58172 18.992 11C18.992 12.8487 18.3653 14.551 17.3127 15.9056L20.7112 19.29C21.1015 19.6805 21.1015 20.3195 20.7112 20.71C20.3208 21.1005 19.6822 21.1005 19.2919 20.71L15.8992 17.3199ZM16.993 11C16.993 14.3137 14.3081 17 10.996 17C7.68395 17 4.999 14.3137 4.999 11C4.999 7.68629 7.68395 5 10.996 5C14.3081 5 16.993 7.68629 16.993 11Z"/>
</svg>
