<svg width="24" height="24" viewBox="0 0 24 24" xmlns="http://www.w3.org/2000/svg">
<path fill-rule="evenodd" clip-rule="evenodd" d="M15.5491 16.9633C14.2873 17.9274 12.7105 18.5 11 18.5C6.85786 18.5 3.5 15.1421 3.5 11C3.5 6.85786 6.85786 3.5 11 3.5C15.1421 3.5 18.5 6.85786 18.5 11C18.5 12.7105 17.9274 14.2873 16.9633 15.5491L20.2071 18.7929C20.5976 19.1834 20.5976 19.8166 20.2071 20.2071C19.8166 20.5976 19.1834 20.5976 18.7929 20.2071L15.5491 16.9633ZM16.5 11C16.5 14.0376 14.0376 16.5 11 16.5C7.96243 16.5 5.5 14.0376 5.5 11C5.5 7.96243 7.96243 5.5 11 5.5C14.0376 5.5 16.5 7.96243 16.5 11Z"/>
</svg>
