<svg width="24" height="24" viewBox="0 0 24 24" xmlns="http://www.w3.org/2000/svg">
    <path d="M10.8778 3L9.75561 5.67082C9.53117 5.73815 9.32918 5.85037 9.12718 5.96259L6.45636 4.8404L4.8404 6.45636L5.96259 9.12718C5.85037 9.35162 5.7606 9.53117 5.67082 9.75561L3 10.8778V13.1222L5.67082 14.2444C5.7606 14.4688 5.85037 14.6484 5.96259 14.8728L4.8404 17.5436L6.45636 19.1596L9.12718 18.0374C9.32918 18.1272 9.53117 18.2394 9.75561 18.3292L10.8778 21H13.1222L14.2444 18.3292C14.4464 18.2394 14.6708 18.1496 14.8728 18.0374L17.5436 19.1596L19.1596 17.5436L18.0374 14.8728C18.1272 14.6708 18.2394 14.4464 18.3292 14.2444L21 13.1222V10.8778L18.3292 9.75561C18.2618 9.55362 18.1496 9.32918 18.0374 9.12718L19.1596 6.45636L17.5436 4.8404L14.8728 5.96259C14.6708 5.87282 14.4464 5.7606 14.2444 5.67082L13.1222 3H10.8778V3ZM12 8.61097C13.8628 8.61097 15.3666 10.1147 15.3666 11.9776C15.3666 13.8404 13.8628 15.3441 12 15.3441C10.1372 15.3441 8.63342 13.8404 8.63342 11.9776C8.63342 10.1147 10.1372 8.61097 12 8.61097Z" />
</svg>
