<svg width="16" height="16" viewBox="0 0 16 16" xmlns="http://www.w3.org/2000/svg">
<path d="M2.5 12C2.5 12.5523 2.94772 13 3.5 13H5.5C6.05228 13 6.5 12.5523 6.5 12C6.5 11.4477 6.05228 11 5.5 11H3.5C2.94772 11 2.5 11.4477 2.5 12Z"/>
<path d="M2.5 8C2.5 8.55228 2.94772 9 3.5 9H8.5C9.05229 9 9.5 8.55228 9.5 8C9.5 7.44771 9.05229 7 8.5 7H3.5C2.94772 7 2.5 7.44771 2.5 8Z"/>
<path d="M3.5 5C2.94772 5 2.5 4.55229 2.5 4C2.5 3.44771 2.94772 3 3.5 3H12.5C13.0523 3 13.5 3.44771 13.5 4C13.5 4.55229 13.0523 5 12.5 5H3.5Z"/>
</svg>
