<svg width="24" height="24" viewBox="0 0 24 24" xmlns="http://www.w3.org/2000/svg">
    <path d="M21 17V5H3V17H21ZM21 3C21.5304 3 22.0391 3.21071 22.4142 3.58579C22.7893 3.96086 23 4.46957 23 5V17C23 17.5304 22.7893 18.0391 22.4142 18.4142C22.0391 18.7893 21.5304 19 21 19H16V21H8V19H3C2.46957 19 1.96086 18.7893 1.58579 18.4142C1.21071 18.0391 1 17.5304 1 17V5C1 4.46957 1.21071 3.96086 1.58579 3.58579C1.96086 3.21071 2.46957 3 3 3H21ZM5 7H11V11H5V7ZM5 13H11V15H5V13ZM13 7H19V9H13V7ZM13 11H19V15H13V11Z" />
</svg>
